<svg width="152" height="61" viewBox="0 0 152 61" fill="none" xmlns="http://www.w3.org/2000/svg">
<path d="M18.3726 0C18.3726 0 24.1233 6.35323 24.0685 11.3769C24.0137 16.4006 18.6783 19.0561 18.6783 19.0561C18.6783 19.0561 13.2616 16.5594 13.046 11.5429C12.8339 6.52098 18.3726 0 18.3726 0Z" fill="#39B54A"/>
<path d="M20.907 50.8919C20.7868 50.8919 20.6666 50.8579 20.5553 50.7901C20.1152 50.5224 18.9471 49.8104 18.5247 34.1432C18.3179 26.489 18.3957 18.9098 18.3957 18.8348L19.1026 18.8419C19.1026 18.9187 19.0248 26.5872 19.2351 34.2807C19.6363 48.8895 20.7126 50.0888 20.9229 50.1816C20.9158 50.178 20.9017 50.178 20.8964 50.1798L21.2428 50.8026C21.135 50.8633 21.0201 50.8919 20.907 50.8919Z" fill="#25B34B"/>
<path d="M18.627 22.5772C18.627 22.5772 16.0468 20.2018 11.7541 23.8692C7.90669 27.1547 -2.11381 25.8876 0.399268 22.4647C4.43751 16.9645 11.1479 15.917 15.8913 19.5719C16.9764 20.4088 17.8883 21.4279 18.627 22.5772Z" fill="#39B54A"/>
<path d="M18.8921 22.5772C18.8921 22.5772 21.4723 20.2018 25.7651 23.8692C29.6124 27.1547 39.6329 25.8876 37.1199 22.4647C33.0816 16.9645 26.3712 15.917 21.6278 19.5719C20.5427 20.4088 19.6308 21.4296 18.8921 22.5772Z" fill="#39B54A"/>
<path d="M30.3511 60.6002L7.59026 60.5931C6.15876 60.2379 5.23624 59.5312 4.84743 58.4961C4.01328 56.2725 5.9785 53.3671 6.06156 53.2458L14.4279 40.3145V31.0166L13.03 28.5967H24.9432L23.5453 31.0166V40.3145L31.9152 53.2529C31.9947 53.3689 33.9599 56.2743 33.1257 58.4979C32.7369 59.533 31.8144 60.2397 30.3829 60.5948L30.3511 60.6002ZM7.68569 60.0648H30.2857C31.5193 59.7525 32.3075 59.16 32.6274 58.307C33.3643 56.3439 31.491 53.5777 31.4733 53.5492L23.0133 40.4715V30.8685L24.0189 29.1285H13.9525L14.9581 30.8685V40.4715L6.50161 53.542C6.47864 53.5759 4.60708 56.3457 5.34404 58.3052C5.66392 59.16 6.45213 59.7507 7.68569 60.0648Z" fill="#EC008C"/>
<path d="M28.7413 59.0261C33.2461 57.9072 29.9218 53.0602 29.9218 53.0602L28.1033 50.2512L9.87024 50.2673L8.06231 53.0602C8.06231 53.0602 4.73982 57.9072 9.24286 59.0261H28.7413Z" fill="#0083CA"/>
<path d="M38.2915 28.8982C40.8081 28.8162 42.6019 29.9565 42.6019 32.0713C42.6019 33.1902 41.6157 34.3288 41.0908 34.8571C42.4004 35.4674 43.3671 36.3008 43.3671 38.2336C43.3671 40.409 42.0788 42.3828 38.4134 42.3828H35.3719V30.872L35.1104 29.0018L38.2915 28.8982ZM37.1851 34.3895H38.6343C39.3996 34.3895 40.064 34.5323 40.1047 34.5323C40.4475 34.0647 40.8699 33.3723 40.8699 32.4782C40.8699 31.0541 40.004 30.383 38.0511 30.383C37.7896 30.383 37.4873 30.4027 37.1851 30.4241V34.3895ZM37.1851 40.9176H38.6555C40.8098 40.9176 41.4549 39.6559 41.4549 38.4156C41.4549 36.5649 40.3875 35.8939 38.3339 35.8939H37.1851V40.9176Z" fill="#39B54A"/>
<path d="M47.0309 28.2897C47.5752 28.2897 48.0577 28.7769 48.0577 29.348C48.0577 29.9173 47.5752 30.4455 47.0309 30.4455C46.4477 30.4455 45.9829 29.9173 45.9829 29.348C45.9847 28.7769 46.4477 28.2897 47.0309 28.2897ZM47.9782 40.857L48.1796 42.3828H46.2869V34.2467L46.0253 32.3765L47.9782 32.1534V40.857Z" fill="#39B54A"/>
<path d="M55.8109 32.0713C58.2268 32.0713 60.04 33.6989 60.04 37.1557C60.04 40.0842 58.2268 42.6469 55.127 42.6469C50.9792 42.6469 50.8784 37.8677 50.8784 37.5429C50.8767 34.3895 52.75 32.0713 55.8109 32.0713ZM55.4486 41.2835C57.1399 41.2835 58.1879 39.4935 58.1879 37.3591C58.1879 35.2247 57.1399 33.4348 55.4486 33.4348C53.7573 33.4348 52.7305 35.2247 52.7305 37.3591C52.7305 39.4935 53.7573 41.2835 55.4486 41.2835Z" fill="#39B54A"/>
<path d="M64.4474 40.857L64.6488 42.3828H62.6341V30.872L62.3726 29.0018H64.4474V40.857Z" fill="#39B54A"/>
<path d="M74.818 42.3828V36.5257C74.818 34.5929 74.5971 33.6792 73.3477 33.6792C71.234 33.6792 70.2673 35.1836 70.2673 35.1836V40.8569L70.4688 42.3828H68.576V34.2467L68.3145 32.3764L70.2673 32.1534V33.6792C71.1138 32.7441 72.5436 32.0927 73.8725 32.0927C75.2015 32.0927 76.5111 32.8654 76.5111 34.493V40.8998L76.7126 42.3846H74.818V42.3828Z" fill="#39B54A"/>
<path d="M82.0675 32.3765H85.1496L84.5452 33.7596H82.0675V39.7184C82.0675 40.6749 82.5517 41.0194 83.1756 41.0194C83.9408 41.0194 84.8262 40.6946 85.3511 40.1859L85.6321 41.7314C84.7661 42.4221 83.6987 42.6469 82.7726 42.6469C81.4631 42.6469 80.3762 41.7921 80.3762 39.556V33.7596H79.1479V32.3765H80.3762V30.5455L82.269 30.3224L82.0675 32.3765Z" fill="#39B54A"/>
<path d="M94.6537 36.8505L94.1907 37.3787H88.5725C88.6131 39.2098 89.4579 41.08 91.4125 41.08C93.125 41.08 94.5742 39.697 94.5742 39.697L94.857 41.2424C94.857 41.2424 93.4272 42.6451 90.9301 42.6451C88.2915 42.6451 86.7822 40.0824 86.7822 37.5608C86.7822 34.6929 88.1519 32.0695 91.2322 32.0695C94.3709 32.0713 94.6131 35.5888 94.6537 36.8505ZM88.6732 36.0778H92.821C92.7609 35.0195 92.3774 33.3937 90.9884 33.3937C89.6187 33.3937 88.9542 34.6144 88.6732 36.0778Z" fill="#39B54A"/>
<path d="M99.2649 40.857L99.4663 42.3828H97.5736V29.1231L97.312 27.2529L99.2649 27.0298V40.857Z" fill="#39B54A"/>
<path d="M104.782 40.857L104.983 42.3828H103.091V29.1231L102.829 27.2529L104.782 27.0298V40.857Z" fill="#39B54A"/>
<path d="M109.352 28.2897C109.897 28.2897 110.379 28.7769 110.379 29.3479C110.379 29.9172 109.895 30.4455 109.352 30.4455C108.769 30.4455 108.304 29.9172 108.304 29.3479C108.306 28.7769 108.769 28.2897 109.352 28.2897ZM110.299 40.8569L110.501 42.3828H108.608V34.2467L108.347 32.3764L110.299 32.1534V40.8569Z" fill="#39B54A"/>
<path d="M115.635 39.697C115.232 40.2056 115.071 40.5714 115.071 40.8355C115.071 42.5024 121.879 39.9611 121.879 43.9461C121.879 46.1216 119.422 47.3226 117.105 47.3226C113.46 47.3226 112.917 45.1668 112.917 45.1668L114.166 44.0068C114.67 45.472 116.059 46.0198 117.328 46.0198C118.818 46.0198 120.067 45.3078 120.067 44.4137C120.067 41.9331 113.663 44.801 113.663 41.2621C113.663 40.4072 114.387 39.5738 114.79 39.208C113.965 38.537 113.38 37.4394 113.38 36.1367C113.38 33.7988 115.071 32.0695 117.549 32.0695C118.859 32.0695 119.463 32.6388 119.463 32.6388L119.825 32.3747H122.464L122.061 33.7578H120.449C120.872 34.286 121.114 35.0802 121.114 35.8529C121.114 38.6387 119.18 39.9807 117.146 39.9807C116.642 39.9825 116.16 39.9004 115.635 39.697ZM117.266 38.7208C118.394 38.7208 119.341 37.5215 119.341 36.0367C119.341 34.5519 118.394 33.3312 117.266 33.3312C116.139 33.3312 115.131 34.5519 115.131 36.0367C115.131 37.5215 116.139 38.7208 117.266 38.7208Z" fill="#39B54A"/>
<path d="M131.525 36.8505L131.062 37.3787H125.442C125.482 39.2098 126.327 41.08 128.282 41.08C129.994 41.08 131.443 39.697 131.443 39.697L131.726 41.2424C131.726 41.2424 130.296 42.6451 127.799 42.6451C125.161 42.6451 123.651 40.0824 123.651 37.5608C123.651 34.6929 125.021 32.0695 128.101 32.0695C131.242 32.0713 131.484 35.5888 131.525 36.8505ZM125.542 36.0778H129.69C129.63 35.0195 129.247 33.3937 127.857 33.3937C126.49 33.3937 125.825 34.6144 125.542 36.0778Z" fill="#39B54A"/>
<path d="M140.686 42.3828V36.5257C140.686 34.5929 140.465 33.6792 139.216 33.6792C137.102 33.6792 136.135 35.1836 136.135 35.1836V40.8569L136.337 42.3828H134.444V34.2467L134.183 32.3764L136.135 32.1534V33.6792C136.982 32.7441 138.412 32.0927 139.741 32.0927C141.07 32.0927 142.379 32.8654 142.379 34.493V40.8998L142.581 42.3846H140.686V42.3828Z" fill="#39B54A"/>
<path d="M147.936 32.3765H151.018L150.413 33.7596H147.936V39.7184C147.936 40.6749 148.42 41.0194 149.044 41.0194C149.809 41.0194 150.694 40.6946 151.219 40.1859L151.5 41.7314C150.634 42.4221 149.567 42.6469 148.641 42.6469C147.331 42.6469 146.244 41.7921 146.244 39.556V33.7596H145.016V32.3765H146.244V30.5455L148.137 30.3224L147.936 32.3765Z" fill="#39B54A"/>
<path d="M48.6372 59.9363L47.3895 59.6722L44.9931 53.0424L44.6308 51.7806L44.288 53.062L41.6706 59.9363L40.5431 59.6722L36.5349 48.5273L35.3667 46.2912H37.7437L40.9054 55.2392L41.3278 56.9471L41.8509 55.2392L43.8656 49.8907L42.5171 46.2912H44.5919L47.7536 55.2392L48.176 56.9471L48.6991 55.2392L52.0428 46.2912H53.856L48.6372 59.9363Z" fill="#39B54A"/>
<path d="M62.1093 54.1399L61.6462 54.6681H56.0281C56.0687 56.4992 56.9135 58.3694 58.8681 58.3694C60.5806 58.3694 62.0297 56.9864 62.0297 56.9864L62.3125 58.5318C62.3125 58.5318 60.8828 59.9345 58.3856 59.9345C55.7471 59.9345 54.2378 57.3718 54.2378 54.8502C54.2378 51.9823 55.6074 49.3589 58.6878 49.3589C61.8283 49.3607 62.0686 52.8782 62.1093 54.1399ZM56.1288 53.3672H60.2766C60.2165 52.3089 59.833 50.6831 58.4439 50.6831C57.0743 50.6831 56.4098 51.902 56.1288 53.3672Z" fill="#39B54A"/>
<path d="M66.7199 58.1463L66.9214 59.6722H65.0286V46.4125L64.7671 44.5422L66.7199 44.3191V58.1463Z" fill="#39B54A"/>
<path d="M72.2375 58.1463L72.439 59.6722H70.5462V46.4125L70.2847 44.5422L72.2375 44.3191V58.1463Z" fill="#39B54A"/>
<path d="M82.3059 59.6722V53.8151C82.3059 51.8823 82.085 50.9686 80.8355 50.9686C78.7218 50.9686 77.7551 52.473 77.7551 52.473V58.1463L77.9566 59.6722H76.0638V51.5379L75.8022 49.6676L77.7551 49.4446V50.9704C78.6016 50.0353 80.0314 49.3839 81.3604 49.3839C82.6894 49.3839 83.9989 50.1566 83.9989 51.7842V58.191L84.2004 59.6758H82.3059V59.6722Z" fill="#39B54A"/>
<path d="M94.7509 54.1399L94.2879 54.6681H88.6697C88.7103 56.4992 89.5551 58.3694 91.5097 58.3694C93.2222 58.3694 94.6714 56.9864 94.6714 56.9864L94.9541 58.5318C94.9541 58.5318 93.5244 59.9345 91.0272 59.9345C88.3887 59.9345 86.8794 57.3718 86.8794 54.8502C86.8794 51.9823 88.249 49.3589 91.3294 49.3589C94.4699 49.3607 94.7103 52.8782 94.7509 54.1399ZM88.7704 53.3672H92.9182C92.8581 52.3089 92.4746 50.6831 91.0856 50.6831C89.7159 50.6831 89.0514 51.902 88.7704 53.3672Z" fill="#39B54A"/>
<path d="M97.0251 57.1095C97.0251 57.1095 98.1739 58.4711 99.8846 58.4711C100.851 58.4711 101.657 58.1249 101.657 57.1095C101.657 55.2803 96.7441 55.3802 96.7441 52.3499C96.7441 50.5207 98.2145 49.3607 100.107 49.3607C101.657 49.3607 102.504 49.7479 103.007 50.0531L102.523 51.6807C101.738 50.8669 100.69 50.6635 99.9447 50.6635C99.1194 50.6635 98.4549 51.1917 98.4549 51.8627C98.4549 54.0382 103.368 53.5706 103.368 56.8454C103.368 58.655 101.998 59.9363 99.8634 59.9363C97.8098 59.9363 96.8431 58.7567 96.8431 58.7567L97.0251 57.1095Z" fill="#39B54A"/>
<path d="M105.625 57.1095C105.625 57.1095 106.774 58.4711 108.485 58.4711C109.451 58.4711 110.257 58.1249 110.257 57.1095C110.257 55.2803 105.344 55.3802 105.344 52.3499C105.344 50.5207 106.815 49.3607 108.707 49.3607C110.257 49.3607 111.104 49.7479 111.607 50.0531L111.123 51.6807C110.339 50.8669 109.291 50.6635 108.545 50.6635C107.719 50.6635 107.055 51.1917 107.055 51.8627C107.055 54.0382 111.968 53.5706 111.968 56.8454C111.968 58.655 110.598 59.9363 108.463 59.9363C106.41 59.9363 105.443 58.7567 105.443 58.7567L105.625 57.1095Z" fill="#39B54A"/>
</svg>
