<?xml version="1.0" encoding="UTF-8"?>
<svg id="Layer_1" data-name="Layer 1" xmlns="http://www.w3.org/2000/svg" viewBox="0 0 499.86 59.7">
  <defs>
    <style>
      .cls-1 {
        fill: #fff;
      }
    </style>
  </defs>
  <path class="cls-1" d="M0,58.66h42.5v-9.93H9.93v-12.45h27.61v-9.93H9.93V9.93h32.57V0H0v58.66ZM79.42,0h-22.47v58.66h22.47c16.69,0,30.14-13.18,30.14-29.33S96.11,0,79.42,0ZM79.42,48.73h-12.56V9.93h12.55c11.19,0,20.21,8.75,20.21,19.4s-9.01,19.4-20.2,19.4ZM160.72,34.56c0,8.4-7.13,15.16-15.88,15.16s-15.88-6.72-15.88-15.16V0h-9.93v34.56c0,13.81,11.55,25.09,25.81,25.09s25.81-11.28,25.81-25.09V0h-9.93v34.56ZM271.63,0h-11.1l-25.44,58.66h.06l-.08.2h10.83l20.08-46.19,20.25,46.19h10.83l-.08-.2h.1L271.63,0ZM309.18,16.8h-.02v42.06h9.92v-.2h.02V16.61h-9.92v.19ZM290.32.2h-.02v9.93h47.64v-.2h.02V0h-47.64v.2h0ZM347.44.2h-.02v9.93h42.5v-.2h.02V0h-42.5v.2ZM347.44,48.93h-.02v9.93h42.5v-.2h.02v-9.93h-42.5v.2ZM405.74,47.47c-3.24-.01-5.87,2.6-5.88,5.84,0,0,0,.01,0,.02v.46c0,3.26,2.65,5.91,5.91,5.91s5.91-2.65,5.91-5.91h0v-.46c0-3.24-2.64-5.87-5.88-5.86-.02,0-.04,0-.06,0ZM445.26,0l-25.4,58.66h10.82l5.15-11.82h30.03l5.14,11.82h10.86L456.36,0h-11.1ZM440.12,36.91l10.74-24.72,10.74,24.72h-21.48ZM489.93,0h9.93v58.65h-9.93V0ZM384.96,34.74h.02v-9.92h-37.54v.2h-.02v9.92h37.54v-.2ZM220.4,0l-25.35,28.16,25.72,30.7h12.76l-24.8-31.05L233.89,0h-13.49ZM185.09,0v58.86h9.96V0h-9.96Z"/>
</svg>