<svg xmlns="http://www.w3.org/2000/svg" xmlns:xlink="http://www.w3.org/1999/xlink" width="81" height="81" viewBox="0 0 81 81">
  <defs>
    <clipPath id="clip-path">
      <rect id="Rectangle_54438" data-name="Rectangle 54438" width="81" height="81" transform="translate(-9869 -18464)"/>
    </clipPath>
  </defs>
  <g id="icon-telegram" transform="translate(9869 18464)" clip-path="url(#clip-path)">
    <g id="Layer_1" data-name="Layer 1" transform="translate(-9900.146 -18499.436)">
      <g id="telegram">
        <path id="Path_23748" data-name="Path 23748" d="M24.37,53.992l8.9,24.625s1.1,2.313,2.313,2.313,18.9-18.437,18.9-18.437L74.162,24.45l-49.5,23.188Z" transform="translate(26.401 26.487)" fill="#c8daea"/>
        <path id="Path_23749" data-name="Path 23749" d="M30.9,41.66,29.2,59.827s-.708,5.563,4.854,0S44.9,49.973,44.9,49.973Z" transform="translate(31.596 45.132)" fill="#a9c6d8"/>
        <path id="Path_23750" data-name="Path 23750" d="M34.742,59.288,16.429,53.33a2.375,2.375,0,0,1-1.375-2.9c.146-.417.438-.771,1.313-1.375,4.042-2.833,75-28.354,75-28.354a5.917,5.917,0,0,1,3.188-.208,1.688,1.688,0,0,1,1.167,1.292,5.917,5.917,0,0,1,.167,1.6,9.446,9.446,0,0,1-.1,1.6c-.438,6.979-13.375,59.042-13.375,59.042S81.638,87.1,78.867,87.2a5.1,5.1,0,0,1-3.708-1.437c-5.437-4.687-24.271-17.333-28.417-20.1a.854.854,0,0,1-.354-.562,1.042,1.042,0,0,1,.271-.646S79.429,35.288,80.3,32.267c0-.25-.187-.354-.521-.271-2.229.813-39.937,24.625-44.1,27.188a1.958,1.958,0,0,1-.917,0" transform="translate(16.196 22.066)" fill="#fff"/>
      </g>
    </g>
  </g>
</svg>
