<svg id="Layer_2" data-name="Layer 2" xmlns="http://www.w3.org/2000/svg" width="45" height="45" viewBox="0 0 45 45">
  <g id="whatsapp">
    <rect id="background" width="45" height="45" rx="5" fill="#29a71a"/>
    <g id="icon" transform="translate(8.552 8.444)">
      <path id="Path_95298" data-name="Path 95298" d="M57.316,37.16A13.953,13.953,0,0,0,34.964,53.3l-1.48,7.187a.532.532,0,0,0,.084.417.539.539,0,0,0,.573.222l7.044-1.67a13.95,13.95,0,0,0,16.131-22.3Zm-2.2,17.53a10.928,10.928,0,0,1-12.585,2.045l-.982-.486-4.318,1.023.013-.054.895-4.347-.481-.949A10.923,10.923,0,0,1,55.12,39.244a.582.582,0,0,0,.056.056A10.923,10.923,0,0,1,55.12,54.689Z" transform="translate(-33.447 -33.024)" fill="#fff"/>
      <path id="Path_95299" data-name="Path 95299" d="M74.882,72.517a4.537,4.537,0,0,1-2.416,2.107c-1.841.445-4.666.015-8.182-3.263l-.043-.038c-3.091-2.866-3.894-5.252-3.7-7.144A4.522,4.522,0,0,1,62.3,61.5a1,1,0,0,1,1.572.361l1.138,2.557a1,1,0,0,1-.125,1.023l-.575.747a.989.989,0,0,0-.089,1.1,10.75,10.75,0,0,0,1.951,2.166,11.386,11.386,0,0,0,2.7,1.936.977.977,0,0,0,1.071-.225l.667-.672a1.023,1.023,0,0,1,1-.256l2.7.767a1.023,1.023,0,0,1,.573,1.511Z" transform="translate(-53.593 -54.04)" fill="#fff"/>
    </g>
  </g>
</svg>
